<mxfile host="app.diagrams.net" agent="Mozilla/5.0 (Windows NT 10.0; Win64; x64) AppleWebKit/537.36 (KHTML, like Gecko) Chrome/127.0.0.0 Safari/537.36 OPR/113.0.0.0" version="24.8.2">
  <diagram name="PÃ¡gina-1" id="Z7ywzCTXN_q2dabEQ0hV">
    <mxGraphModel dx="1073" dy="583" grid="1" gridSize="10" guides="1" tooltips="1" connect="1" arrows="1" fold="1" page="1" pageScale="1" pageWidth="827" pageHeight="1169" math="0" shadow="0">
      <root>
        <mxCell id="0" />
        <mxCell id="1" parent="0" />
        <mxCell id="r0l-eljssM37oTp1jt_h-15" style="edgeStyle=orthogonalEdgeStyle;rounded=0;orthogonalLoop=1;jettySize=auto;html=1;entryX=0.5;entryY=0;entryDx=0;entryDy=0;" edge="1" parent="1" source="r0l-eljssM37oTp1jt_h-1" target="r0l-eljssM37oTp1jt_h-14">
          <mxGeometry relative="1" as="geometry" />
        </mxCell>
        <mxCell id="r0l-eljssM37oTp1jt_h-1" value="Celular" style="rounded=0;whiteSpace=wrap;html=1;" vertex="1" parent="1">
          <mxGeometry x="320" y="380" width="120" height="60" as="geometry" />
        </mxCell>
        <mxCell id="r0l-eljssM37oTp1jt_h-11" style="edgeStyle=orthogonalEdgeStyle;rounded=0;orthogonalLoop=1;jettySize=auto;html=1;entryX=0;entryY=0.5;entryDx=0;entryDy=0;" edge="1" parent="1" source="r0l-eljssM37oTp1jt_h-2" target="r0l-eljssM37oTp1jt_h-1">
          <mxGeometry relative="1" as="geometry" />
        </mxCell>
        <mxCell id="r0l-eljssM37oTp1jt_h-2" value="Musicas" style="rounded=0;whiteSpace=wrap;html=1;" vertex="1" parent="1">
          <mxGeometry x="120" y="180" width="120" height="60" as="geometry" />
        </mxCell>
        <mxCell id="r0l-eljssM37oTp1jt_h-12" style="edgeStyle=orthogonalEdgeStyle;rounded=0;orthogonalLoop=1;jettySize=auto;html=1;entryX=0.5;entryY=0;entryDx=0;entryDy=0;" edge="1" parent="1" source="r0l-eljssM37oTp1jt_h-3" target="r0l-eljssM37oTp1jt_h-1">
          <mxGeometry relative="1" as="geometry" />
        </mxCell>
        <mxCell id="r0l-eljssM37oTp1jt_h-3" value="Navegador" style="rounded=0;whiteSpace=wrap;html=1;" vertex="1" parent="1">
          <mxGeometry x="320" y="180" width="120" height="60" as="geometry" />
        </mxCell>
        <mxCell id="r0l-eljssM37oTp1jt_h-13" style="edgeStyle=orthogonalEdgeStyle;rounded=0;orthogonalLoop=1;jettySize=auto;html=1;entryX=1;entryY=0.5;entryDx=0;entryDy=0;" edge="1" parent="1" source="r0l-eljssM37oTp1jt_h-4" target="r0l-eljssM37oTp1jt_h-1">
          <mxGeometry relative="1" as="geometry" />
        </mxCell>
        <mxCell id="r0l-eljssM37oTp1jt_h-4" value="Telefone" style="rounded=0;whiteSpace=wrap;html=1;" vertex="1" parent="1">
          <mxGeometry x="540" y="180" width="120" height="60" as="geometry" />
        </mxCell>
        <mxCell id="r0l-eljssM37oTp1jt_h-6" style="edgeStyle=orthogonalEdgeStyle;rounded=0;orthogonalLoop=1;jettySize=auto;html=1;entryX=0.5;entryY=0;entryDx=0;entryDy=0;" edge="1" parent="1" source="r0l-eljssM37oTp1jt_h-5" target="r0l-eljssM37oTp1jt_h-2">
          <mxGeometry relative="1" as="geometry" />
        </mxCell>
        <mxCell id="r0l-eljssM37oTp1jt_h-5" value="ServicoMusica" style="ellipse;whiteSpace=wrap;html=1;aspect=fixed;" vertex="1" parent="1">
          <mxGeometry x="135" y="30" width="90" height="90" as="geometry" />
        </mxCell>
        <mxCell id="r0l-eljssM37oTp1jt_h-8" style="edgeStyle=orthogonalEdgeStyle;rounded=0;orthogonalLoop=1;jettySize=auto;html=1;exitX=0.5;exitY=1;exitDx=0;exitDy=0;entryX=0.5;entryY=0;entryDx=0;entryDy=0;" edge="1" parent="1" source="r0l-eljssM37oTp1jt_h-7" target="r0l-eljssM37oTp1jt_h-3">
          <mxGeometry relative="1" as="geometry" />
        </mxCell>
        <mxCell id="r0l-eljssM37oTp1jt_h-7" value="ServicoNavegador" style="ellipse;whiteSpace=wrap;html=1;aspect=fixed;" vertex="1" parent="1">
          <mxGeometry x="340" y="35" width="80" height="80" as="geometry" />
        </mxCell>
        <mxCell id="r0l-eljssM37oTp1jt_h-10" style="edgeStyle=orthogonalEdgeStyle;rounded=0;orthogonalLoop=1;jettySize=auto;html=1;entryX=0.5;entryY=0;entryDx=0;entryDy=0;" edge="1" parent="1" source="r0l-eljssM37oTp1jt_h-9" target="r0l-eljssM37oTp1jt_h-4">
          <mxGeometry relative="1" as="geometry" />
        </mxCell>
        <mxCell id="r0l-eljssM37oTp1jt_h-9" value="ServicoTelefone" style="ellipse;whiteSpace=wrap;html=1;aspect=fixed;" vertex="1" parent="1">
          <mxGeometry x="560" y="40" width="80" height="80" as="geometry" />
        </mxCell>
        <mxCell id="r0l-eljssM37oTp1jt_h-14" value="Iphone" style="rounded=0;whiteSpace=wrap;html=1;" vertex="1" parent="1">
          <mxGeometry x="320" y="585" width="120" height="60" as="geometry" />
        </mxCell>
      </root>
    </mxGraphModel>
  </diagram>
</mxfile>
